# xmcd
#
# Track frame offsets:
#  150
#  14185
#  26458
#  36797
#  47507
#  59054
#  69058
#  82149
#  95661
#  111498
#  123530
#  139828
#  158495
#  171056
#  182565
#  193882
#
# Disc length: 2709 seconds
#
# Revision: 0
# Processed by: cddbd v1.5.1PL2 Copyright (c) Steve Scherf et al.
# Submitted via: Collectorz.com_Music_Collector 6.9
#
DISCID=e20a9310
DTITLE=Various Artist - Classic Country CD1
DYEAR=1998
DGENRE=country
TTITLE0=Glen Campbell - Rhinestone Cowboy
TTITLE1=Billie Jo Spears - What I've Got In Mind
TTITLE2=Bobby Darin - Eighteen Yellow Roses
TTITLE3=Faron Young - Hello Walls
TTITLE4=Wanda Jackson - In The Middle Of A Heartache
TTITLE5=Willie Nelson - Touch Me
TTITLE6=Crystal Gale - Talking In Your Sleep
TTITLE7=John  Stewart - July, Your A Woman
TTITLE8=The Band - The Night They Drove Old Dixie Down
TTITLE9=Susan Raye - Desperado
TTITLE10=Clint Beattie - I Believe (The Wheel Does Turn)
TTITLE11=Juice Newton - Angel Of The Morning
TTITLE12=Dr Hook - Only Sixteen
TTITLE13=Judy Miller - He Walks Like A Man
TTITLE14=Sonny James - Young Love
TTITLE15=Frank Ifield - I Remember You
EXTD=
EXTT0=
EXTT1=
EXTT2=
EXTT3=
EXTT4=
EXTT5=
EXTT6=
EXTT7=
EXTT8=
EXTT9=
EXTT10=
EXTT11=
EXTT12=
EXTT13=
EXTT14=
EXTT15=
PLAYORDER=
